<svg id="86f20c92-0900-43af-955d-7856c2214c5a" data-name="Capa 1" xmlns="http://www.w3.org/2000/svg" xmlns:xlink="http://www.w3.org/1999/xlink" viewBox="0 0 357.8 380.56"><defs><style>.\30 c5c1456-0983-426f-b364-c0518b7a8e17,.\32 eaca250-39ac-46f1-8359-6a63998174af{fill:none;}.\30 9fb7504-ec34-4d4e-9a6e-4191e185a1ff{opacity:0.3;}.\30 538e265-f3c8-403e-9c63-9bde41fb7a29{clip-path:url(#9d69cf63-f9c7-4b0d-8af3-eaca913078db);}.\30 c5c1456-0983-426f-b364-c0518b7a8e17{stroke:#59e9ff;stroke-miterlimit:10;stroke-width:1.53px;}.\30 d8b8f28-262b-4413-8c9b-fa9f0e506a85{fill:#59e9ff;}.\31 14f75d2-3b36-47db-8fe3-a38130785731{opacity:0.5;}.\31 ae4c694-ac3f-4f14-b1cd-dd0e5484159d{clip-path:url(#2e0226f1-954d-4e6d-af66-5fdc508db13e);}.\37 b69ebee-b869-4232-8486-4f2f67101f12{clip-path:url(#859e4d94-8399-4cf2-b616-8ec921e41c95);}.e6f143f7-29ab-4326-b0f1-af24da9e0055{clip-path:url(#4376828a-ef63-4347-a411-de21f5b5b659);}</style><clipPath id="9d69cf63-f9c7-4b0d-8af3-eaca913078db" transform="translate(-301.1 -82.38)"><rect class="2eaca250-39ac-46f1-8359-6a63998174af" x="300.91" y="82.18" width="358.19" height="380.96"/></clipPath><clipPath id="2e0226f1-954d-4e6d-af66-5fdc508db13e" transform="translate(-301.1 -82.38)"><rect class="2eaca250-39ac-46f1-8359-6a63998174af" x="300.91" y="183.42" width="77.25" height="77.26"/></clipPath><clipPath id="859e4d94-8399-4cf2-b616-8ec921e41c95" transform="translate(-301.1 -82.38)"><rect class="2eaca250-39ac-46f1-8359-6a63998174af" x="581.84" y="183.42" width="77.25" height="77.26"/></clipPath><clipPath id="4376828a-ef63-4347-a411-de21f5b5b659" transform="translate(-301.1 -82.38)"><rect class="2eaca250-39ac-46f1-8359-6a63998174af" x="394.55" y="284.65" width="77.25" height="77.26"/></clipPath></defs><title>CirculosOpacidad</title><g class="09fb7504-ec34-4d4e-9a6e-4191e185a1ff"><g class="0538e265-f3c8-403e-9c63-9bde41fb7a29"><circle class="0c5c1456-0983-426f-b364-c0518b7a8e17" cx="38.43" cy="38.43" r="37.66"/><path class="0d8b8f28-262b-4413-8c9b-fa9f0e506a85" d="M470.84,120.81a37.66,37.66,0,1,1-37.66-37.66,37.66,37.66,0,0,1,37.66,37.66" transform="translate(-301.1 -82.38)"/><circle class="0c5c1456-0983-426f-b364-c0518b7a8e17" cx="132.08" cy="38.43" r="37.66"/><circle class="0c5c1456-0983-426f-b364-c0518b7a8e17" cx="319.37" cy="38.43" r="37.66"/><g class="114f75d2-3b36-47db-8fe3-a38130785731"><g class="1ae4c694-ac3f-4f14-b1cd-dd0e5484159d"><path class="0d8b8f28-262b-4413-8c9b-fa9f0e506a85" d="M377.2,222a37.66,37.66,0,1,1-37.66-37.66A37.66,37.66,0,0,1,377.2,222" transform="translate(-301.1 -82.38)"/><circle class="0c5c1456-0983-426f-b364-c0518b7a8e17" cx="38.43" cy="139.66" r="37.66"/></g></g><circle class="0c5c1456-0983-426f-b364-c0518b7a8e17" cx="132.08" cy="139.66" r="37.66"/><path class="0d8b8f28-262b-4413-8c9b-fa9f0e506a85" d="M564.49,222a37.66,37.66,0,1,1-37.66-37.66A37.66,37.66,0,0,1,564.49,222" transform="translate(-301.1 -82.38)"/><circle class="0c5c1456-0983-426f-b364-c0518b7a8e17" cx="225.72" cy="139.66" r="37.66"/><g class="114f75d2-3b36-47db-8fe3-a38130785731"><g class="7b69ebee-b869-4232-8486-4f2f67101f12"><path class="0d8b8f28-262b-4413-8c9b-fa9f0e506a85" d="M658.13,222a37.66,37.66,0,1,1-37.66-37.66A37.66,37.66,0,0,1,658.13,222" transform="translate(-301.1 -82.38)"/><circle class="0c5c1456-0983-426f-b364-c0518b7a8e17" cx="319.37" cy="139.66" r="37.66"/></g></g><g class="114f75d2-3b36-47db-8fe3-a38130785731"><g class="e6f143f7-29ab-4326-b0f1-af24da9e0055"><path class="0d8b8f28-262b-4413-8c9b-fa9f0e506a85" d="M470.84,323.28a37.66,37.66,0,1,1-37.66-37.66,37.66,37.66,0,0,1,37.66,37.66" transform="translate(-301.1 -82.38)"/><circle class="0c5c1456-0983-426f-b364-c0518b7a8e17" cx="132.08" cy="240.9" r="37.66"/></g></g><circle class="0c5c1456-0983-426f-b364-c0518b7a8e17" cx="225.72" cy="240.9" r="37.66"/><path class="0d8b8f28-262b-4413-8c9b-fa9f0e506a85" d="M658.13,323.28a37.66,37.66,0,1,1-37.66-37.66,37.66,37.66,0,0,1,37.66,37.66" transform="translate(-301.1 -82.38)"/><circle class="0c5c1456-0983-426f-b364-c0518b7a8e17" cx="319.37" cy="240.9" r="37.66"/><circle class="0c5c1456-0983-426f-b364-c0518b7a8e17" cx="38.43" cy="342.13" r="37.66"/><path class="0d8b8f28-262b-4413-8c9b-fa9f0e506a85" d="M470.84,424.51a37.66,37.66,0,1,1-37.66-37.66,37.66,37.66,0,0,1,37.66,37.66" transform="translate(-301.1 -82.38)"/><circle class="0c5c1456-0983-426f-b364-c0518b7a8e17" cx="132.08" cy="342.13" r="37.66"/><circle class="0c5c1456-0983-426f-b364-c0518b7a8e17" cx="225.72" cy="342.13" r="37.66"/></g></g></svg>