<?xml version="1.0" encoding="utf-8"?>
<!-- Generator: Adobe Illustrator 19.2.1, SVG Export Plug-In . SVG Version: 6.00 Build 0)  -->
<svg version="1.1" id="Capa_1" xmlns="http://www.w3.org/2000/svg" xmlns:xlink="http://www.w3.org/1999/xlink" x="0px" y="0px"
	 viewBox="0 0 960 560" style="enable-background:new 0 0 960 560;" xml:space="preserve">
<style type="text/css">
	.st0{opacity:0.7;}
	.st1{opacity:0.5;}
	.st2{clip-path:url(#SVGID_2_);fill:none;stroke:#59E9FF;stroke-width:1.8325;stroke-miterlimit:10;}
	.st3{opacity:0.6;}
	.st4{clip-path:url(#SVGID_4_);fill:none;stroke:#59E9FF;stroke-width:1.8325;stroke-miterlimit:10;}
	.st5{opacity:0.3;}
	.st6{clip-path:url(#SVGID_6_);fill:none;stroke:#59E9FF;stroke-width:1.1525;stroke-miterlimit:10;}
	.st7{opacity:0.4;}
	.st8{clip-path:url(#SVGID_8_);fill:none;stroke:#59E9FF;stroke-width:1.1525;stroke-miterlimit:10;}
	.st9{opacity:0.2;}
	.st10{clip-path:url(#SVGID_10_);fill:none;stroke:#59E9FF;stroke-width:0.6396;stroke-miterlimit:10;}
	.st11{clip-path:url(#SVGID_12_);fill:none;stroke:#59E9FF;stroke-width:0.6396;stroke-miterlimit:10;}
</style>
<g class="st0">
	<g class="st1">
		<g>
			<defs>
				<rect id="SVGID_1_" x="277" y="100" width="377.1" height="377.1"/>
			</defs>
			<clipPath id="SVGID_2_">
				<use xlink:href="#SVGID_1_"  style="overflow:visible;"/>
			</clipPath>
			
				<rect x="322.1" y="145.2" transform="matrix(0.924 -0.3824 0.3824 0.924 -74.9762 199.9866)" class="st2" width="286.8" height="286.8"/>
		</g>
	</g>
	<g class="st3">
		<g>
			<defs>
				<rect id="SVGID_3_" x="277" y="100" width="377.2" height="377.2"/>
			</defs>
			<clipPath id="SVGID_4_">
				<use xlink:href="#SVGID_3_"  style="overflow:visible;"/>
			</clipPath>
			
				<rect x="322.1" y="145.2" transform="matrix(0.3829 -0.9238 0.9238 0.3829 20.6919 608.1583)" class="st4" width="286.8" height="286.8"/>
		</g>
	</g>
	<g class="st5">
		<g>
			<defs>
				<rect id="SVGID_5_" x="370" y="193" width="191.2" height="191.2"/>
			</defs>
			<clipPath id="SVGID_6_">
				<use xlink:href="#SVGID_5_"  style="overflow:visible;"/>
			</clipPath>
			
				<rect x="375.4" y="198.4" transform="matrix(5.471332e-002 -0.9985 0.9985 5.471332e-002 151.934 737.6684)" class="st6" width="180.4" height="180.4"/>
		</g>
	</g>
	<g class="st7">
		<g>
			<defs>
				<rect id="SVGID_7_" x="337.4" y="160.4" width="256.3" height="256.3"/>
			</defs>
			<clipPath id="SVGID_8_">
				<use xlink:href="#SVGID_7_"  style="overflow:visible;"/>
			</clipPath>
			
				<rect x="375.4" y="198.4" transform="matrix(0.7447 -0.6674 0.6674 0.7447 -73.7518 384.3658)" class="st8" width="180.4" height="180.4"/>
		</g>
	</g>
	<g class="st9">
		<g>
			<defs>
				<rect id="SVGID_9_" x="412.5" y="235.5" width="106.2" height="106.2"/>
			</defs>
			<clipPath id="SVGID_10_">
				<use xlink:href="#SVGID_9_"  style="overflow:visible;"/>
			</clipPath>
			
				<rect x="415.5" y="238.5" transform="matrix(5.471700e-002 -0.9985 0.9985 5.471700e-002 151.9324 737.6675)" class="st10" width="100.2" height="100.2"/>
		</g>
	</g>
	<g class="st9">
		<g>
			<defs>
				<rect id="SVGID_11_" x="394.4" y="217.4" width="142.3" height="142.3"/>
			</defs>
			<clipPath id="SVGID_12_">
				<use xlink:href="#SVGID_11_"  style="overflow:visible;"/>
			</clipPath>
			
				<rect x="415.5" y="238.5" transform="matrix(0.7447 -0.6674 0.6674 0.7447 -73.7519 384.3647)" class="st11" width="100.2" height="100.2"/>
		</g>
	</g>
</g>
</svg>
