<svg id="0fa5217e-c40d-45f1-9c0d-cda4793780a5" data-name="Capa 1" xmlns="http://www.w3.org/2000/svg" xmlns:xlink="http://www.w3.org/1999/xlink" viewBox="0 0 779.57 341.07"><defs><style>.\33 6fecc82-a626-408c-a807-70a8820e08f3,.c773eddc-42f8-47ea-b44c-30afcca2934e{fill:none;}.bc386dfb-6b20-4966-9753-349c24053c2e{opacity:0.7;}.\39 f766da5-ea98-4ad0-8762-5b65348329be{opacity:0.5;}.\37 d5ce8c6-d2a0-42a9-907e-e40dbc787a28{clip-path:url(#4849b7c4-c675-4bc6-a174-e54f60c85888);}.\33 6fecc82-a626-408c-a807-70a8820e08f3{stroke:#59e9ff;stroke-miterlimit:10;stroke-width:1.8px;}.\37 7c84a3e-d852-42b6-8056-03525840125f{opacity:0.3;}.\34 ac7d52d-e8fb-4482-a765-f2fbb88c0161{clip-path:url(#93daa819-803c-485d-be1f-5af3fb5377ac);}.ed32df2b-0b7b-478a-a977-2ba9b7ab0bcd{opacity:0.1;}.cfc3b6b8-99cd-4f3f-94c0-273c5d6baca2{clip-path:url(#df05bbb4-add2-4e6c-a444-31fa2a1be008);}</style><clipPath id="4849b7c4-c675-4bc6-a174-e54f60c85888" transform="translate(-90.12 -110.12)"><rect class="c773eddc-42f8-47ea-b44c-30afcca2934e" x="339.99" y="134.89" width="297.99" height="291.54"/></clipPath><clipPath id="93daa819-803c-485d-be1f-5af3fb5377ac" transform="translate(-90.12 -110.12)"><rect class="c773eddc-42f8-47ea-b44c-30afcca2934e" x="572.64" y="177.63" width="210.55" height="206.06"/></clipPath><clipPath id="df05bbb4-add2-4e6c-a444-31fa2a1be008" transform="translate(-90.12 -110.12)"><rect class="c773eddc-42f8-47ea-b44c-30afcca2934e" x="752.22" y="223.66" width="117.74" height="114.51"/></clipPath></defs><title>FlechasDegrade</title><g class="bc386dfb-6b20-4966-9753-349c24053c2e"><g class="9f766da5-ea98-4ad0-8762-5b65348329be"><g class="7d5ce8c6-d2a0-42a9-907e-e40dbc787a28"><polygon class="36fecc82-a626-408c-a807-70a8820e08f3" points="398.73 98.47 250.89 26.4 250.89 87 275.26 98.47 422.59 170.54 275.01 242.6 250.89 254.07 250.89 314.67 398.73 242.6 545.55 170.54 398.73 98.47"/></g></g><polygon class="36fecc82-a626-408c-a807-70a8820e08f3" points="174.3 85.99 0.9 1.44 0.9 72.54 29.46 85.99 202.28 170.54 29.17 255.09 0.9 268.53 0.9 339.63 174.3 255.09 346.55 170.54 174.3 85.99"/><g class="77c84a3e-d852-42b6-8056-03525840125f"><g class="4ac7d52d-e8fb-4482-a765-f2fbb88c0161"><polygon class="36fecc82-a626-408c-a807-70a8820e08f3" points="587.47 119.84 483.54 69.14 483.54 111.78 500.61 119.84 604.22 170.54 500.45 221.23 483.54 229.3 483.54 271.93 587.47 221.23 690.75 170.54 587.47 119.84"/></g></g><g class="ed32df2b-0b7b-478a-a977-2ba9b7ab0bcd"><g class="cfc3b6b8-99cd-4f3f-94c0-273c5d6baca2"><polygon class="36fecc82-a626-408c-a807-70a8820e08f3" points="720.86 142.98 663.12 115.16 663.12 138.55 673.21 142.98 730.42 170.79 672.94 198.61 663.12 203.03 663.12 226.42 720.86 198.61 777.53 170.79 720.86 142.98"/></g></g></g></svg>